<?xml version="1.0" encoding="UTF-8" standalone="no"?>
<svg
   xmlns:dc="http://purl.org/dc/elements/1.1/"
   xmlns:cc="http://creativecommons.org/ns#"
   xmlns:rdf="http://www.w3.org/1999/02/22-rdf-syntax-ns#"
   xmlns:svg="http://www.w3.org/2000/svg"
   xmlns="http://www.w3.org/2000/svg"
   xmlns:sodipodi="http://sodipodi.sourceforge.net/DTD/sodipodi-0.dtd"
   xmlns:inkscape="http://www.inkscape.org/namespaces/inkscape"
   inkscape:version="1.0.2 (1.0.2+r75+1)"
   sodipodi:docname="logo-mobile.svg"
   id="svg1547"
   version="1.1"
   height="75"
   width="75">
  <metadata
     id="metadata1553">
    <rdf:RDF>
      <cc:Work
         rdf:about="">
        <dc:format>image/svg+xml</dc:format>
        <dc:type
           rdf:resource="http://purl.org/dc/dcmitype/StillImage" />
        <dc:title></dc:title>
      </cc:Work>
    </rdf:RDF>
  </metadata>
  <defs
     id="defs1551" />
  <sodipodi:namedview
     inkscape:current-layer="text1115"
     inkscape:window-maximized="1"
     inkscape:window-y="0"
     inkscape:window-x="1920"
     inkscape:cy="37.262249"
     inkscape:cx="77.552188"
     inkscape:zoom="9.3333335"
     showgrid="false"
     id="namedview1549"
     inkscape:window-height="1389"
     inkscape:window-width="2560"
     inkscape:pageshadow="2"
     inkscape:pageopacity="0"
     guidetolerance="10"
     gridtolerance="10"
     objecttolerance="10"
     borderopacity="1"
     bordercolor="#666666"
     pagecolor="#ffffff"
     inkscape:document-rotation="0" />
  <g
     id="g1545"
     fill-rule="evenodd"
     fill="none">
    <path
       style="stroke-width:3.8695;stroke-miterlimit:4;stroke-dasharray:none"
       id="path1111"
       d="M 1.9347496,1.93475 H 73.06525 v 71.1305 H 1.9347496 Z"
       stroke-width="4"
       stroke="#2e86f8"
       inkscape:export-filename="/home/ulimaps/sitios/geoytopo.com/static/favicon-32x32.png"
       inkscape:export-xdpi="40.959999"
       inkscape:export-ydpi="40.959999" />
    <g
       aria-label="dgt"
       transform="scale(0.79555242,1.2569882)"
       id="text1115"
       style="font-style:normal;font-weight:normal;font-size:64.0885px;line-height:1.25;font-family:sans-serif;letter-spacing:-3.20443px;fill:#000000;fill-opacity:1;stroke:none;stroke-width:1.602;stroke-miterlimit:4;stroke-dasharray:none">
      <path
         d="m 13.330458,45.887383 q -3.7812219,0 -6.7933815,-1.666301 Q 3.524917,42.490693 1.7304389,38.965825 4.941082e-5,35.376869 4.941082e-5,29.80117 q 0,-5.639788 1.98674348918,-9.292833 1.9867436,-3.717133 5.2552571,-5.511611 3.268514,-1.858567 7.113824,-1.858567 2.243097,0 4.293929,0.44862 2.050832,0.448619 3.653045,1.345858 V 6.6011323 q 0,-1.3458585 -0.44862,-1.9867435 -0.384531,-0.640885 -1.730389,-0.897239 L 18.906157,3.4607958 V 2.8199108 L 30.570264,1.6723633e-5 31.275238,0.57681323 31.018884,9.5492034 V 40.88848 q 0,1.28177 0.448619,2.114921 0.44862,0.769062 1.666301,1.089504 l 0.576797,0.192266 v 0.640885 l -10.959134,0.704973 -0.576796,-2.307186 q -1.73039,1.153593 -3.973487,1.858567 -2.179009,0.704973 -4.870726,0.704973 z m 3.717133,-2.371274 q 2.691717,0 4.934814,-1.602213 V 16.470761 q -2.371274,-1.538124 -4.870726,-1.538124 -3.076248,0 -5.255257,3.588957 -2.1790089,3.524867 -2.1790089,11.151399 0,7.626531 2.0508319,10.766868 2.050832,3.076248 5.319346,3.076248 z"
         style="font-style:normal;font-variant:normal;font-weight:normal;font-stretch:normal;font-family:'DM Serif Display';-inkscape-font-specification:'DM Serif Display';letter-spacing:1.60221px;fill:#000000;fill-opacity:1;stroke-width:1.602;stroke-miterlimit:4;stroke-dasharray:none"
         id="path909" />
      <path
         d="m 51.463062,33.838745 q -4.422106,0 -7.498354,-1.474035 v 2.179009 q 0,1.986743 1.986743,2.371274 l 12.048638,2.243098 q 3.01216,0.576796 5.447523,1.538124 2.435363,0.897239 3.909398,2.627628 1.474036,1.666301 1.474036,4.614372 0,3.140337 -2.050832,5.767966 -2.050832,2.691717 -6.088408,4.293929 -3.973487,1.666301 -9.933717,1.666301 -5.12708,0 -8.13924,-1.089504 -3.012159,-1.025416 -4.29393,-2.691717 -1.217681,-1.666301 -1.217681,-3.524868 0,-2.307186 1.538124,-4.678461 1.602213,-2.307186 3.909399,-3.717133 -1.986744,-0.769062 -2.883983,-1.986743 -0.897239,-1.217682 -0.897239,-2.627629 0,-1.28177 0.640885,-2.371274 0.704974,-1.153593 1.666301,-2.307186 l 2.114921,-2.691717 q -4.678461,-2.691717 -4.678461,-8.459682 0,-4.614372 3.268514,-7.498355 3.332602,-2.883983 9.741452,-2.883983 3.268513,0 5.703876,0.769062 2.499452,0.769062 4.101664,2.179009 2.050832,-0.320442 3.84531,-1.025416 1.858567,-0.769062 3.332602,-2.050832 l 0.897239,0.640885 v 3.268514 h -7.242 q 2.307186,2.56354 2.307186,6.601116 0,4.486195 -3.332602,7.434266 -3.268514,2.883982 -9.677364,2.883982 z m -0.06409,-1.28177 q 2.56354,0 3.717133,-2.11492 1.217681,-2.114921 1.217681,-7.049735 0,-4.934815 -1.217681,-6.921559 -1.153593,-2.050832 -3.588956,-2.050832 -2.371275,0 -3.588956,2.114921 -1.217682,2.050832 -1.217682,6.985647 0,4.934814 1.089505,6.985646 1.153593,2.050832 3.588956,2.050832 z M 41.849787,50.30949 q 0,3.781222 2.307186,5.703877 2.371275,1.922655 7.434266,1.922655 5.319346,0 8.011063,-1.73039 2.691717,-1.730389 2.691717,-4.870726 0,-1.794478 -1.345859,-2.883983 -1.28177,-1.089504 -4.422106,-1.666301 L 44.926035,44.605613 q -0.512708,-0.128177 -1.025416,-0.256354 -0.897239,1.28177 -1.474035,2.883983 -0.576797,1.666301 -0.576797,3.076248 z"
         style="font-style:normal;font-variant:normal;font-weight:normal;font-stretch:normal;font-family:'DM Serif Display';-inkscape-font-specification:'DM Serif Display';letter-spacing:1.60221px;fill:#000000;fill-opacity:1;stroke-width:1.602;stroke-miterlimit:4;stroke-dasharray:none"
         id="path911" />
      <path
         d="m 85.301675,45.887383 q -4.101664,0 -6.40885,-2.050832 -2.243097,-2.050832 -2.243097,-6.537027 V 15.381257 h -4.422107 v -0.640885 l 1.538124,-0.256354 q 1.986743,-0.44862 3.396691,-1.28177 1.474035,-0.833151 2.883982,-2.243098 l 5.255257,-5.8320532 h 0.640885 l -0.192265,8.9723902 h 7.177912 v 1.28177 h -7.242001 v 23.07186 q 0,2.243098 0.961328,3.396691 1.025416,1.153593 2.56354,1.153593 1.345858,0 2.371274,-0.640885 1.025416,-0.704974 2.050832,-1.858567 l 0.640885,0.640885 q -1.28177,2.179009 -3.524867,3.460779 -2.243098,1.28177 -5.447523,1.28177 z"
         style="font-style:normal;font-variant:normal;font-weight:normal;font-stretch:normal;font-family:'DM Serif Display';-inkscape-font-specification:'DM Serif Display';letter-spacing:1.60221px;fill:#000000;fill-opacity:1;stroke-width:1.602;stroke-miterlimit:4;stroke-dasharray:none"
         id="path913" />
    </g>
  </g>
</svg>
